# xmcd
#
# Track frame offsets:
#	180
#	9371
#	22461
#	38786
#	51260
#	68512
#	80487
#	92959
#	106726
#	118248
#	131956
#	142028
#
# Disc length: 2114 seconds
#
# Revision: 1
# Processed by: cddbd v1.4PL0 Copyright (c) Steve Scherf et al.
# Submitted via: audiograbber 1.80.04
#
DISCID=aa08400c
DTITLE=Jeffrey De Bruyn - Sweet Country
DYEAR=2003
DGENRE=Country
TTITLE0=Have You Ever Been Lonely
TTITLE1=Don't Rock The Jukebox
TTITLE2=Bobby McGee
TTITLE3=Come Back Yo Me
TTITLE4=Grandpa
TTITLE5=We Will Make Love
TTITLE6=Mamma's Don't Let Your Babies Grow Up To Be Cowboys
TTITLE7=Oh Lonesome Me
TTITLE8=Before The Next Teardrop Falls
TTITLE9=Looki'n Back Texas
TTITLE10=Run Samson Run
TTITLE11=Always On My Mind
EXTD=
EXTT0=
EXTT1=
EXTT2=
EXTT3=
EXTT4=
EXTT5=
EXTT6=
EXTT7=
EXTT8=
EXTT9=
EXTT10=
EXTT11=
PLAYORDER=
